# xmcd
#
# Track frame offsets:
#	150
#	21540
#	43428
#	55065
#	66463
#	79340
#	94917
#	105349
#	119707
#	134453
#	149693
#	169269
#	182258
#	195484
#
# Disc length: 2775 seconds
#
# Revision: 1
# Processed by: cddbd v1.5.1PL2 Copyright (c) Steve Scherf et al.
# Submitted via: audiograbber 1.81.03
#
DISCID=d60ad50e
DTITLE=Davis`Coen - Can't Get There From Here
DYEAR=2006
DGENRE=Blues
TTITLE0=What's Wrong
TTITLE1=Soft Of Heaven
TTITLE2=That's Alright
TTITLE3=Fool's Gold
TTITLE4=21st Century
TTITLE5=Good Mornin Little Schoolgirl
TTITLE6=Don't You Leave Me Here
TTITLE7=I Wish I Was In Heaven Sitting Down
TTITLE8=Memphis
TTITLE9=Pay Day
TTITLE10=Fool's Names
TTITLE11=You Got To Move
TTITLE12=Take You To Japan
TTITLE13=Dream High
EXTD=
EXTT0=
EXTT1=
EXTT2=
EXTT3=
EXTT4=
EXTT5=
EXTT6=
EXTT7=
EXTT8=
EXTT9=
EXTT10=
EXTT11=
EXTT12=
EXTT13=
PLAYORDER=
